# Blender v2.78 (sub 0) OBJ File: ''
# www.blender.org
mtllib Bomb.mtl
o Bomb
v 0.000360 0.546559 0.763054
v -0.433441 0.386490 0.239635
v -0.436256 0.287499 0.100504
v -0.425053 0.741496 0.220978
v -0.518807 0.461724 0.089187
v -0.511185 0.639461 0.089187
v -0.165756 0.302120 0.428663
v -0.260815 0.455272 0.420318
v -0.227071 0.735579 0.419597
v -0.088787 0.461715 0.509303
v -0.088787 0.639678 0.505847
v -0.223825 0.137681 0.221763
v -0.276762 0.256333 0.275880
v -0.270660 0.126486 0.123569
v -0.106492 0.120508 0.264783
v -0.100490 0.069027 0.100504
v -0.340050 0.653321 0.341103
v -0.424824 0.789903 0.100504
v -0.100490 0.806777 0.424072
v -0.268065 0.839383 0.267981
v -0.222868 0.965683 0.186859
v -0.288553 0.879516 0.053108
v -0.117423 0.910123 0.301820
v -0.100713 0.969535 0.241601
v -0.049236 1.030984 -0.002921
v -0.431473 0.294314 -0.160724
v -0.763113 0.546358 0.000267
v -0.518178 0.461724 -0.088772
v -0.510512 0.639461 -0.088772
v -0.434437 0.452356 -0.244730
v -0.431457 0.653321 -0.239561
v -0.267976 0.123536 -0.117313
v -0.221758 0.137673 -0.223806
v -0.275876 0.256326 -0.276743
v -0.100490 0.068798 -0.100460
v -0.113193 0.123447 -0.267604
v -0.346330 0.452356 -0.345212
v -0.251741 0.820702 -0.251412
v -0.165230 0.308492 -0.433593
v -0.245847 0.452356 -0.433456
v -0.212652 0.756846 -0.418153
v -0.089247 0.461713 -0.517285
v -0.089247 0.639673 -0.509123
v -0.415091 0.771475 -0.205510
v -0.222244 0.966018 -0.200585
v -0.105120 0.854722 -0.265473
v -0.025109 0.974258 -0.246628
v -0.100490 0.789907 -0.423660
v 0.165310 0.310040 0.435617
v 0.089227 0.461715 0.509260
v 0.089227 0.639678 0.505848
v 0.245815 0.452356 0.428067
v 0.210677 0.758279 0.417986
v 0.117701 0.124941 0.270752
v 0.100475 0.069199 0.100504
v 0.221737 0.137678 0.223839
v 0.275853 0.256329 0.276779
v 0.268701 0.124570 0.121167
v 0.347005 0.440632 0.334736
v 0.436723 0.378787 0.225556
v 0.435909 0.287668 0.100504
v 0.431975 0.653321 0.239595
v 0.518297 0.461724 0.088809
v 0.510088 0.639460 0.088809
v 0.763077 0.546378 -0.000323
v 0.100475 0.806605 0.424142
v 0.239500 0.831917 0.259557
v 0.203191 0.966152 0.216876
v 0.068930 1.027949 -0.006445
v 0.265730 0.854825 0.105075
v 0.239851 0.969330 0.100867
v 0.412932 0.775321 0.203766
v 0.100475 0.068971 -0.100460
v 0.121219 0.124307 -0.268440
v 0.269629 0.125134 -0.119417
v 0.223821 0.137670 -0.221733
v 0.276761 0.256322 -0.275849
v 0.345461 0.441053 -0.336466
v 0.100475 0.287654 -0.435904
v 0.220992 0.331543 -0.412955
v 0.088783 0.461713 -0.518285
v 0.088783 0.639673 -0.510077
v -0.000324 0.546573 -0.763040
v 0.244753 0.452356 -0.434954
v 0.210953 0.757508 -0.420345
v 0.437746 0.306422 -0.161346
v 0.517311 0.461724 -0.089219
v 0.509146 0.639460 -0.089219
v 0.433476 0.452356 -0.245822
v 0.423599 0.750089 -0.216384
v 0.104304 0.854791 -0.265728
v 0.265483 0.854755 -0.105756
v 0.225800 0.961789 -0.201301
v 0.253507 0.819644 -0.253745
v 0.100475 0.790081 -0.423592
v 0.423669 0.789906 -0.100460
vn -0.3376 0.0145 0.9412
vn -0.9441 0.0064 0.3295
vn -0.3605 -0.5154 0.7774
vn -0.8702 -0.3930 0.2972
vn -0.4408 -0.2263 0.8686
vn -0.6847 -0.3915 0.6148
vn -0.8906 0.4241 0.1641
vn -0.1275 0.9679 0.2164
vn -0.3372 0.0145 -0.9413
vn -0.3778 -0.5155 -0.7691
vn -0.9419 0.0154 -0.3355
vn -0.5004 -0.6519 -0.5698
vn -0.4455 -0.2488 -0.8600
vn -0.9540 0.2509 -0.1638
vn 0.9444 0.0063 0.3286
vn 0.3373 0.0156 0.9413
vn 0.6808 0.1021 0.7253
vn 0.8743 -0.3949 0.2821
vn 0.5575 -0.4372 0.7058
vn 0.3607 0.9117 0.1964
vn 0.3803 0.8103 0.4458
vn 0.9413 0.0156 -0.3373
vn 0.3354 0.0154 -0.9419
vn 0.7012 0.1114 -0.7042
vn 0.9622 0.2370 -0.1341
vn 0.0001 -0.9484 0.3171
vn -0.0000 0.9403 0.3404
vn -0.0018 -0.9450 -0.3270
vn -0.0018 0.9387 -0.3448
vn -0.0013 0.1565 -0.9877
vn 0.0183 0.9742 -0.2249
vn -0.3270 -0.9450 -0.0012
vn -0.3462 0.9381 -0.0013
vn 0.3263 -0.9453 -0.0018
vn 0.3447 0.9387 -0.0018
vn -0.3518 0.9361 0.0002
vn -0.5645 0.8227 -0.0675
vn -0.8678 0.2448 -0.4325
vn -0.3415 0.3036 -0.8895
vn 0.2312 0.4151 0.8799
vn 0.8669 0.2602 0.4252
vn 0.1673 0.4816 -0.8603
vn 0.3120 0.2745 -0.9095
vn -0.4817 0.0435 0.8752
vn -0.2595 -0.9294 0.2623
vn -0.7453 -0.5218 0.4150
vn -0.6374 -0.6095 0.4714
vn -0.7588 0.0180 0.6511
vn -0.3901 0.6365 0.6654
vn -0.4946 -0.6657 0.5588
vn -0.6052 0.0749 0.7926
vn -0.5462 -0.4630 0.6981
vn -0.5217 0.8165 0.2471
vn -0.4285 0.6747 0.6010
vn -0.8831 0.0312 -0.4682
vn -0.2580 -0.9291 -0.2651
vn -0.7552 -0.5216 -0.3970
vn -0.5066 0.0766 -0.8588
vn -0.4953 0.2305 -0.8376
vn -0.5475 -0.6561 -0.5194
vn -0.8251 0.2397 -0.5117
vn -0.8556 0.0438 0.5157
vn -0.6436 -0.4153 -0.6428
vn -0.8586 -0.2531 -0.4458
vn -0.6402 -0.4120 -0.6484
vn -0.2016 0.3263 -0.9235
vn -0.2587 0.8857 -0.3855
vn -0.0952 0.9674 -0.2346
vn -0.3372 0.9159 -0.2177
vn 0.5011 0.0605 0.8633
vn 0.2579 -0.9298 0.2627
vn 0.7476 -0.5234 0.4088
vn 0.4032 -0.5199 0.7531
vn 0.8732 0.0099 0.4873
vn 0.6362 -0.6129 0.4687
vn 0.6478 -0.4008 0.6479
vn 0.7670 -0.0195 0.6413
vn 0.5109 -0.6413 0.5724
vn 0.4411 -0.2032 0.8742
vn 0.9293 0.2781 0.2429
vn 0.2641 -0.9294 -0.2579
vn 0.2608 0.9593 0.1087
vn 0.7543 -0.5196 -0.4014
vn 0.4086 -0.5233 -0.7478
vn 0.5053 0.0759 -0.8596
vn 0.8667 0.0635 -0.4947
vn 0.4467 -0.6464 -0.6186
vn 0.5663 -0.6441 -0.5143
vn 0.7086 0.0927 -0.6995
vn 0.3744 -0.3230 -0.8692
vn 0.7023 -0.3760 -0.6045
vn 0.8629 -0.2340 -0.4479
vn 0.6380 -0.4102 -0.6516
vn 0.1739 0.3556 -0.9183
vn 0.3947 0.8790 -0.2676
vn 0.0934 0.9632 -0.2519
vn 0.2540 0.8879 -0.3834
vn 0.0060 -0.9523 0.3050
vn -0.0053 -0.4441 0.8960
vn -0.0025 -0.6676 0.7446
vn 0.1466 0.4757 0.8673
vn 0.0314 0.9679 0.2494
vn 0.1576 0.8743 0.4592
vn 0.0017 -0.9501 -0.3118
vn -0.0277 -0.4480 -0.8936
vn -0.0323 -0.6946 -0.7187
vn -0.0007 0.9253 -0.3792
vn -0.3152 -0.9490 0.0049
vn -0.8972 -0.4413 -0.0179
vn -0.7083 -0.7057 -0.0160
vn 0.3139 -0.9495 -0.0001
vn 0.8985 -0.4387 -0.0170
vn 0.7142 -0.6996 -0.0230
vn 0.9621 0.2708 -0.0308
vn -0.7947 0.6070 -0.0008
vn 0.4176 0.9080 0.0341
vn 0.3463 0.9373 -0.0395
vn 0.3524 0.2800 0.8930
vn -0.8575 0.4779 0.1904
vn -0.2612 0.4095 0.8741
vn -0.7086 0.4781 0.5189
vn -0.5119 0.4784 0.7134
vn -0.1825 0.4758 -0.8604
vn 0.9012 0.3065 0.3064
vn -0.8467 0.5306 -0.0384
vn 0.8628 0.4779 -0.1647
vn 0.8953 0.2911 -0.3373
vn 0.8480 0.5289 0.0332
vn 0.0000 0.4396 0.8982
vn -0.0023 0.4965 -0.8680
vn 0.0009 -1.0000 0.0011
usemtl None
s off
f 27//1 5//1 6//1
f 1//2 11//2 10//2
f 12//3 15//3 13//3
f 2//4 5//4 3//4
f 7//5 10//5 8//5
f 7//6 8//6 13//6
f 21//7 22//7 20//7
f 25//8 21//8 24//8
f 27//9 29//9 28//9
f 36//10 33//10 34//10
f 42//11 43//11 83//11
f 39//12 36//12 34//12
f 42//13 39//13 40//13
f 22//14 45//14 38//14
f 50//15 51//15 1//15
f 63//16 65//16 64//16
f 59//17 53//17 52//17
f 63//18 60//18 61//18
f 60//19 59//19 57//19
f 72//20 70//20 67//20
f 53//21 67//21 66//21
f 83//22 82//22 81//22
f 88//23 65//23 87//23
f 85//24 78//24 84//24
f 93//25 92//25 94//25
f 1//26 10//26 50//26
f 1//27 51//27 11//27
f 42//28 83//28 81//28
f 82//29 83//29 43//29
f 47//30 91//30 46//30
f 47//31 25//31 69//31
f 27//32 28//32 5//32
f 6//33 29//33 27//33
f 63//34 87//34 65//34
f 65//35 88//35 64//35
f 25//36 45//36 21//36
f 22//37 44//37 18//37
f 29//38 44//38 31//38
f 44//39 38//39 31//39
f 51//40 53//40 66//40
f 64//41 72//41 62//41
f 85//42 82//42 95//42
f 90//43 78//43 94//43
f 11//44 9//44 8//44 10//44
f 16//45 15//45 12//45 14//45
f 12//46 13//46 14//46
f 14//47 13//47 2//47 3//47
f 17//48 4//48 2//48 8//48
f 21//49 20//49 23//49 24//49
f 7//50 13//50 15//50
f 8//51 9//51 17//51
f 2//52 13//52 8//52
f 4//53 20//53 22//53 18//53
f 9//54 19//54 23//54 20//54
f 30//55 28//55 29//55 31//55
f 35//56 32//56 33//56 36//56
f 32//57 34//57 33//57
f 40//58 41//58 43//58 42//58
f 37//59 30//59 31//59 38//59
f 26//60 34//60 32//60
f 41//61 40//61 37//61 38//61
f 6//62 5//62 2//62 4//62
f 39//63 34//63 37//63 40//63
f 28//64 30//64 26//64
f 26//65 30//65 37//65 34//65
f 46//66 38//66 45//66 47//66
f 41//67 38//67 46//67 48//67
f 25//68 47//68 45//68
f 22//69 38//69 44//69
f 51//70 50//70 52//70 53//70
f 56//71 54//71 55//71 58//71
f 58//72 57//72 56//72
f 56//73 57//73 54//73
f 60//74 63//74 64//74 62//74
f 60//75 57//75 58//75 61//75
f 49//76 57//76 59//76 52//76
f 59//77 60//77 62//77
f 54//78 57//78 49//78
f 49//79 52//79 50//79
f 68//80 67//80 70//80 71//80
f 76//81 75//81 73//81 74//81
f 68//82 71//82 69//82
f 76//83 77//83 75//83
f 74//84 77//84 76//84
f 84//85 81//85 82//85 85//85
f 88//86 87//86 89//86 90//86
f 80//87 77//87 74//87 79//87
f 75//88 77//88 86//88
f 90//89 89//89 78//89
f 80//90 79//90 81//90 84//90
f 78//91 77//91 80//91 84//91
f 86//92 89//92 87//92
f 86//93 77//93 78//93 89//93
f 91//94 47//94 93//94 94//94
f 92//95 96//95 90//95 94//95
f 93//96 47//96 69//96
f 91//97 94//97 85//97 95//97
f 55//98 54//98 15//98 16//98
f 10//99 7//99 49//99 50//99
f 54//100 49//100 7//100 15//100
f 68//101 24//101 23//101 67//101
f 25//102 24//102 68//102 69//102
f 23//103 19//103 66//103 67//103
f 74//104 73//104 35//104 36//104
f 79//105 39//105 42//105 81//105
f 79//106 74//106 36//106 39//106
f 48//107 46//107 91//107 95//107
f 16//108 14//108 32//108 35//108
f 28//109 26//109 3//109 5//109
f 14//110 3//110 26//110 32//110
f 58//111 55//111 73//111 75//111
f 61//112 86//112 87//112 63//112
f 61//113 58//113 75//113 86//113
f 70//114 92//114 93//114 71//114
f 22//115 21//115 45//115
f 70//116 72//116 96//116 92//116
f 71//117 93//117 69//117
f 72//118 67//118 59//118 62//118
f 4//119 18//119 6//119
f 11//120 19//120 9//120
f 9//121 20//121 17//121
f 17//122 20//122 4//122
f 41//123 48//123 43//123
f 59//124 67//124 53//124
f 29//125 6//125 18//125 44//125
f 90//126 96//126 88//126
f 85//127 94//127 78//127
f 64//128 88//128 96//128 72//128
f 66//129 19//129 11//129 51//129
f 82//130 43//130 48//130 95//130
f 73//131 55//131 16//131 35//131
