# Blender v2.78 (sub 0) OBJ File: ''
# www.blender.org
g Dron
v 0.524976 -0.326877 0.171003
v 0.501456 -0.336330 -0.215313
v 0.501456 -0.268971 -0.215313
v 0.524976 -0.287520 0.171003
v 0.169250 -0.070024 0.175625
v 0.237541 -0.124909 -0.173170
v 0.397559 -0.336330 -0.215313
v 0.411793 -0.332634 0.083592
v 0.407109 -0.322207 -0.458528
v 0.407109 -0.284871 -0.458528
v 0.471400 -0.284871 -0.458528
v 0.471400 -0.322207 -0.458528
v 0.031348 0.280309 0.248622
v 0.037287 0.347357 -0.242786
v 0.028905 0.595521 -0.215313
v 0.018017 0.598362 0.193122
v 0.015385 0.497086 -0.512875
v 0.015385 0.567323 -0.512875
v -0.410054 -0.332636 0.083594
v -0.395817 -0.336333 -0.215313
v -0.235801 -0.124908 -0.173170
v -0.178644 -0.070024 0.175626
v -0.513228 -0.287518 0.171005
v -0.499713 -0.268969 -0.215313
v -0.499713 -0.336333 -0.215313
v -0.513228 -0.326878 0.171005
v -0.469660 -0.322209 -0.458533
v -0.469660 -0.284871 -0.458533
v -0.405369 -0.284871 -0.458533
v -0.405369 -0.322209 -0.458533
v -0.016277 0.598362 0.193122
v -0.027162 0.595521 -0.215313
v -0.035544 0.347357 -0.242786
v -0.044450 0.280309 0.248622
v -0.013646 0.567323 -0.512875
v -0.013646 0.497086 -0.512875
v 0.054797 0.048455 0.921469
v -0.052024 0.048455 0.921469
v -0.057545 0.044825 0.625588
v 0.042093 0.044825 0.625588
v 0.042093 0.160200 0.625588
v -0.057545 0.160200 0.625588
v -0.052024 0.158312 0.921469
v 0.054797 0.158312 0.921469
vt 0.0000 0.0000
vt 1.0000 0.0000
vt 1.0000 1.0000
vt 0.0000 1.0000
vt 0.0000 0.0000
vt 1.0000 0.0000
vt 1.0000 1.0000
vt 0.0000 1.0000
vt 1.0000 0.0000
vt 0.0000 1.0000
vt 0.0000 0.0000
vt 1.0000 1.0000
vt 1.0000 0.0000
vt 0.0000 0.0000
vt 1.0000 0.0000
vt 1.0000 1.0000
vt 0.0000 1.0000
vt 0.0000 0.0000
vt 1.0000 0.0000
vt 0.0000 1.0000
vt 0.0000 0.0000
vt 1.0000 1.0000
vt 0.0000 1.0000
vt 1.0000 0.0000
vt 0.0000 0.0000
vt 1.0000 1.0000
vt 0.0000 0.0000
vt 1.0000 0.0000
vt 1.0000 1.0000
vt 0.0000 1.0000
vt 0.0000 0.0000
vt 1.0000 0.0000
vt 1.0000 1.0000
vt 0.0000 1.0000
vt 0.0000 0.0000
vt 1.0000 0.0000
vt 1.0000 1.0000
vt 0.0000 1.0000
vt 0.0000 0.0000
vt 1.0000 0.0000
vt 1.0000 1.0000
vt 0.0000 1.0000
vt 1.0000 0.0000
vt 0.0000 1.0000
vt 0.0000 0.0000
vt 1.0000 1.0000
vt 1.0000 0.0000
vt 0.0000 0.0000
vt 1.0000 0.0000
vt 1.0000 1.0000
vt 0.0000 1.0000
vt 0.0000 0.0000
vt 1.0000 0.0000
vt 0.0000 1.0000
vt 0.0000 0.0000
vt 1.0000 1.0000
vt 0.0000 1.0000
vt 1.0000 0.0000
vt 0.0000 0.0000
vt 1.0000 1.0000
vt 0.0000 0.0000
vt 1.0000 0.0000
vt 1.0000 1.0000
vt 0.0000 1.0000
vt 0.0000 0.0000
vt 1.0000 0.0000
vt 1.0000 1.0000
vt 0.0000 1.0000
vt 0.0000 0.0000
vt 1.0000 0.0000
vt 1.0000 1.0000
vt 0.0000 1.0000
vt 0.0000 1.0000
vt 0.0000 0.0000
vt 1.0000 0.0000
vt 1.0000 1.0000
vt 0.0000 1.0000
vt 0.0000 0.0000
vt 1.0000 1.0000
vt 1.0000 0.0000
vt 0.0000 0.0000
vt 0.0000 1.0000
vt 1.0000 0.0000
vt 0.0000 0.0000
vt 1.0000 1.0000
vt 1.0000 0.0000
vt 1.0000 1.0000
vt 0.0000 0.0000
vt 0.0000 1.0000
vt 1.0000 1.0000
vt 0.0000 1.0000
vt 0.0000 0.0000
vt 0.0000 0.0000
vt 1.0000 0.0000
vt 1.0000 1.0000
vt 0.0000 1.0000
vt 0.0000 0.0000
vt 1.0000 0.0000
vt 1.0000 1.0000
vt 0.0000 1.0000
vt 1.0000 0.0000
vt 0.0000 1.0000
vt 1.0000 1.0000
vt 1.0000 0.0000
vn 0.9982 0.0000 -0.0608
vn -0.7629 -0.6464 -0.0052
vn 0.0192 -0.9997 0.0181
vn 0.5033 0.8641 -0.0121
vn -0.3744 -0.5321 0.7594
vn 0.0000 0.0000 -1.0000
vn 0.9925 0.0000 -0.1226
vn -0.8432 -0.5182 -0.1428
vn 0.0000 -0.9983 -0.0580
vn 0.3715 0.9059 -0.2033
vn 0.9990 0.0394 0.0215
vn 0.9980 0.0311 -0.0556
vn 0.7702 -0.6378 0.0067
vn -0.9994 0.0000 -0.0350
vn -0.0200 -0.9996 0.0184
vn -0.5164 0.8563 -0.0117
vn 0.3990 -0.5331 0.7461
vn 0.8432 -0.5182 -0.1428
vn -0.9925 0.0000 -0.1226
vn -0.3715 0.9059 -0.2033
vn -0.9979 0.0648 0.0068
vn -0.9980 0.0311 -0.0556
vn 0.0000 -0.9999 0.0123
vn -0.0000 -0.9878 0.1554
vn 0.0000 1.0000 0.0064
vn 0.0000 1.0000 -0.0070
vn 0.0000 0.1719 0.9851
vn 0.0000 -0.8746 -0.4848
vn 0.0000 0.9955 -0.0943
vn 0.9991 0.0000 -0.0429
vn -0.9998 0.0000 0.0187
vn 0.9215 0.3785 0.0869
vn -0.9249 0.3758 0.0586
vn 0.9555 0.2616 0.1362
vn -0.9583 0.2563 0.1268
vn 0.0000 -0.9689 0.2473
vn 0.0000 0.9528 0.3036
vn 0.0000 0.0000 1.0000
vn -0.0000 -0.1458 -0.9893
s off
f 1/1/1 2/2/1 3/3/1 4/4/1
f 5/5/2 6/6/2 7/7/2 8/8/2
f 1/1/3 8/9/3 7/7/3 2/10/3
f 3/11/4 6/6/4 5/12/4 4/4/4
f 1/1/5 4/13/5 5/12/5 8/8/5
f 9/14/6 10/15/6 11/16/6 12/17/6
f 2/18/7 12/19/7 11/16/7 3/20/7
f 6/21/8 10/15/8 9/22/8 7/23/8
f 2/18/9 7/24/9 9/22/9 12/17/9
f 11/25/10 10/15/10 6/26/10 3/20/10
f 13/27/11 14/28/11 15/29/11 16/30/11
f 14/31/12 17/32/12 18/33/12 15/34/12
f 19/35/13 20/36/13 21/37/13 22/38/13
f 23/39/14 24/40/14 25/41/14 26/42/14
f 19/35/15 26/43/15 25/41/15 20/44/15
f 21/45/16 24/40/16 23/46/16 22/38/16
f 19/35/17 22/47/17 23/46/17 26/42/17
f 27/48/6 28/49/6 29/50/6 30/51/6
f 20/52/18 30/53/18 29/50/18 21/54/18
f 24/55/19 28/49/19 27/56/19 25/57/19
f 20/52/9 25/58/9 27/56/9 30/51/9
f 29/59/20 28/49/20 24/60/20 21/54/20
f 31/61/21 32/62/21 33/63/21 34/64/21
f 32/65/22 35/66/22 36/67/22 33/68/22
f 37/69/23 38/70/23 39/71/23 40/72/23
f 5/5/24 22/47/24 21/37/24 6/73/24
f 41/74/25 42/75/25 43/76/25 44/77/25
f 15/78/26 32/62/26 31/79/26 16/30/26
f 13/27/27 16/80/27 31/79/27 34/64/27
f 36/81/6 35/66/6 18/33/6 17/82/6
f 14/31/28 33/83/28 36/67/28 17/82/28
f 18/84/29 35/66/29 32/85/29 15/34/29
f 37/69/30 40/86/30 41/87/30 44/77/30
f 43/88/31 42/75/31 39/71/31 38/89/31
f 5/5/32 6/6/32 14/90/32 13/91/32
f 34/92/33 33/83/33 21/37/33 22/38/33
f 40/93/34 5/94/34 13/95/34 41/96/34
f 42/97/35 34/98/35 22/99/35 39/100/35
f 40/93/36 39/101/36 22/99/36 5/102/36
f 13/27/37 34/98/37 42/103/37 41/96/37
f 37/69/38 44/104/38 43/76/38 38/89/38
f 21/45/39 33/83/39 14/90/39 6/73/39
