# Blender v2.78 (sub 0) OBJ File: ''
# www.blender.org
g RayShip
v 1.133278 0.216607 0.512143
v 1.676885 0.097670 0.313020
v 1.612918 0.053777 -0.061118
v 1.354651 0.168173 0.431054
v 1.288886 0.082800 -0.230012
v 0.779284 0.294059 0.641813
v 0.019412 0.185087 1.163891
v 0.071146 0.448996 0.901205
v 0.772281 0.242629 0.280641
v 0.772281 0.168469 -0.228688
v 0.061357 0.359857 0.277884
v 0.053359 0.287036 -0.231327
v 1.347258 -0.253018 0.808190
v 1.684126 -0.044572 0.211021
v 1.744372 -0.038794 -0.187347
v 1.522222 -0.261136 0.717389
v 1.330118 -0.088704 -0.272235
v 0.863310 -0.230566 1.059347
v 0.352384 -0.206864 1.324507
v 0.522040 -0.214735 1.236459
v 0.772281 -0.194616 0.280641
v 0.772281 -0.175052 -0.228688
v 0.262953 -0.160833 0.280641
v 0.262953 -0.141269 -0.228688
v 1.123961 0.057148 -0.593596
v 0.791781 0.088867 -0.753230
v 0.635005 0.060519 -1.126074
v 0.045361 0.214216 -0.740539
v 0.036903 0.137216 -1.278976
v 0.031125 0.084629 -1.646701
v 1.107576 -0.049995 -0.588300
v 0.830975 -0.060345 -0.793138
v 0.603172 -0.130453 -1.492444
v 0.262953 -0.121704 -0.738016
v 0.331833 -0.031986 -1.314041
v 0.017689 -0.037679 -2.501978
v 0.013599 0.155439 1.193401
v -0.298218 0.373965 0.769782
v -0.748681 0.282460 0.609502
v -0.246375 0.313128 0.280641
v -0.246375 0.241516 -0.228688
v -0.863974 0.259040 0.568479
v -0.755704 0.163535 -0.228688
v -1.119267 0.098148 0.598591
v -1.324736 0.165443 0.404534
v -1.276332 0.082729 -0.236463
v -1.662234 0.096886 0.284449
v -1.609549 0.054853 -0.071870
v -0.053730 -0.188022 1.535270
v -0.053740 -0.188022 1.535264
v -0.872030 -0.220040 1.095235
v -0.031609 -0.141463 0.284995
v -0.022600 -0.122502 -0.224175
v -0.755704 -0.183733 0.280641
v -0.755704 -0.165294 -0.228688
v -1.349348 -0.238716 0.838562
v -1.526396 -0.245643 0.743354
v -1.316893 -0.116394 -0.277611
v -1.675473 -0.088159 0.208481
v -1.734399 -0.136290 -0.192723
v -0.246375 0.169904 -0.738016
v -0.274317 0.090373 -1.273241
v -0.775324 0.086551 -0.754852
v -0.618629 0.059100 -1.120729
v -0.123168 0.061223 -1.645159
v -1.114089 0.056976 -0.596299
v -0.013593 -0.103540 -0.733346
v -0.312104 -0.052549 -1.311368
v -0.814498 -0.084205 -0.794490
v -0.588311 -0.125963 -1.488921
v 0.017678 -0.037680 -2.501958
v -1.095674 -0.041252 -0.584695
vn 0.1616 0.9766 -0.1422
vn 0.3221 -0.9346 -0.1506
vn -0.0661 -0.9971 -0.0383
vn 0.0552 -0.9895 -0.1338
vn -0.0468 -0.9989 -0.0095
vn -0.1499 0.9791 -0.1377
vn -0.3626 0.6922 0.6240
vn 0.0585 -0.9976 -0.0361
vn -0.1788 -0.9810 -0.0749
vn -0.0210 -0.9949 -0.0989
vn 0.0524 -0.9986 -0.0102
vn -0.0321 -0.9991 0.0288
vn 0.0016 -0.9926 -0.1213
vn 0.0319 -0.9995 -0.0036
vn 0.0191 -0.9922 -0.1230
vn 0.1503 -0.9689 -0.1968
vn 0.0192 -0.9954 -0.0935
vn -0.1439 -0.9691 -0.2002
vn 0.8475 0.5300 -0.0302
vn 0.6741 0.4053 0.6175
vn 0.2371 0.6279 -0.7413
vn 0.3867 0.6114 0.6904
vn 0.8393 0.4242 -0.3400
vn 0.1394 0.7807 -0.6091
vn 0.4815 0.8665 -0.1315
vn 0.5112 0.1595 -0.8445
vn -0.9321 0.3606 -0.0352
vn -0.6674 0.4885 0.5621
vn -0.3049 0.4725 -0.8269
vn -0.8517 0.4039 -0.3339
vn -0.1055 0.7747 -0.6234
vn -0.7801 0.5756 -0.2454
vn -0.5046 0.1279 -0.8538
vn 0.8612 0.1415 -0.4882
vn -0.8650 0.1130 -0.4890
s off
f 2//1 3//1 5//1 4//1
f 9//1 10//1 12//1 11//1
f 4//1 5//1 10//1 9//1
f 6//1 9//1 11//1 8//1
f 1//1 4//1 9//1 6//1
f 16//2 17//2 15//2 14//2
f 23//3 24//3 22//3 21//3
f 21//4 22//4 17//4 16//4
f 20//3 23//3 21//3 18//3
f 18//3 21//3 16//3 13//3
f 26//1 27//1 29//1 28//1
f 34//5 35//5 33//5 32//5
f 40//6 41//6 43//6 42//6
f 45//6 46//6 48//6 47//6
f 42//6 43//6 46//6 45//6
f 38//6 40//6 42//6 39//6
f 39//7 42//7 45//7 44//7
f 54//8 55//8 53//8 52//8
f 59//9 60//9 58//9 57//9
f 57//10 58//10 55//10 54//10
f 51//8 54//8 52//8 50//8
f 56//8 57//8 54//8 51//8
f 61//6 62//6 64//6 63//6
f 69//11 70//11 68//11 67//11
f 7//7 8//7 38//7 37//7
f 11//6 12//6 41//6 40//6
f 8//6 11//6 40//6 38//6
f 49//12 50//12 20//12 19//12
f 52//3 53//3 24//3 23//3
f 50//3 52//3 23//3 20//3
f 28//6 29//6 62//6 61//6
f 29//6 30//6 65//6 62//6
f 67//13 68//13 35//13 34//13
f 68//14 71//14 36//14 35//14
f 10//1 26//1 28//1 12//1
f 5//1 25//1 26//1 10//1
f 41//6 61//6 63//6 43//6
f 43//6 63//6 66//6 46//6
f 24//15 34//15 32//15 22//15
f 22//16 32//16 31//16 17//16
f 55//17 69//17 67//17 53//17
f 58//18 72//18 69//18 55//18
f 2//19 14//19 15//19 3//19
f 2//20 4//20 16//20 14//20
f 15//21 17//21 5//21 3//21
f 7//22 19//22 20//22 8//22
f 6//22 8//22 20//22 18//22
f 1//22 13//22 16//22 4//22
f 1//22 6//22 18//22 13//22
f 26//23 32//23 33//23 27//23
f 33//24 35//24 29//24 27//24
f 29//25 35//25 36//25 30//25
f 31//26 32//26 26//26 25//26
f 38//7 50//7 49//7 37//7
f 38//7 39//7 51//7 50//7
f 48//27 60//27 59//27 47//27
f 45//28 47//28 59//28 57//28
f 58//29 60//29 48//29 46//29
f 45//7 57//7 56//7 44//7
f 39//7 44//7 56//7 51//7
f 64//30 70//30 69//30 63//30
f 68//31 70//31 64//31 62//31
f 65//32 71//32 68//32 62//32
f 69//33 72//33 66//33 63//33
f 5//34 17//34 31//34 25//34
f 66//35 72//35 58//35 46//35
f 7//22 37//22 49//22 19//22
f 36//6 71//6 65//6 30//6
f 12//6 28//6 61//6 41//6
f 53//3 67//3 34//3 24//3
