# Blender v2.78 (sub 0) OBJ File: ''
# www.blender.org
mtllib Spaceship.mtl
o Cylinder
v -0.572447 1.908901 1.160342
v -0.346682 1.556028 1.500000
v 0.966113 1.379432 -1.158287
v 0.748962 1.036853 -1.500000
v 0.412212 1.477801 1.500000
v 0.614346 1.788705 1.160836
v 0.475997 1.356621 1.500000
v 1.008203 1.082685 1.159162
v 0.680982 0.681683 -1.500000
v 0.781597 0.355610 -1.157611
v 0.306540 0.815742 1.500000
v 0.723113 0.290621 1.159477
v 0.021337 -0.011402 -1.157863
v 0.037910 0.364706 -1.500000
v -0.661482 0.700933 -1.500000
v -0.867863 0.434474 -1.160659
v -0.371356 0.583440 1.500000
v -0.269994 0.000182 1.159800
v -0.589973 0.812406 1.500000
v -0.969354 0.722765 1.159642
v -0.879552 1.483223 -1.160897
v -0.669756 1.107991 -1.500000
v -0.034322 1.541852 -1.500000
v -0.066691 2.030824 -1.160699
vn 0.5323 0.8438 -0.0682
vn 0.8724 0.4866 0.0465
vn 0.0000 0.0000 1.0000
vn 0.9408 -0.3386 0.0142
vn 0.0000 0.0000 -1.0000
vn 0.2805 -0.9590 0.0401
vn -0.9462 0.3166 0.0671
vn -0.7175 -0.6944 0.0549
vn 0.1005 0.9922 0.0740
vn 0.9833 -0.1772 -0.0406
vn 0.4347 -0.9005 -0.0143
vn -0.4475 -0.8928 -0.0518
vn -0.9990 -0.0111 -0.0423
vn 0.3488 0.5462 -0.7616
vn 0.0727 0.7144 0.6960
vn 0.6280 0.3460 0.6970
vn 0.3137 -0.6433 -0.6984
vn 0.8961 -0.1643 -0.4123
vn 0.4807 -0.1637 0.8614
vn 0.1463 -0.4672 0.8720
vn -0.3128 -0.6379 -0.7038
vn -0.5140 -0.4957 0.7001
vn -0.6826 0.2262 0.6950
vn -0.8532 -0.0118 -0.5215
vn -0.3495 0.5160 -0.7820
vn -0.5570 0.8268 -0.0779
usemtl None
s off
f 6//1 3//1 24//1
f 6//2 8//2 3//2
f 2//3 11//3 7//3
f 8//4 12//4 10//4
f 2//3 17//3 11//3
f 14//5 4//5 9//5
f 2//3 19//3 17//3
f 12//6 18//6 13//6
f 14//5 15//5 22//5
f 20//7 1//7 21//7
f 14//5 22//5 23//5
f 18//8 20//8 16//8
f 1//9 6//9 24//9
f 2//3 7//3 5//3
f 8//10 10//10 3//10
f 12//11 13//11 10//11
f 18//12 16//12 13//12
f 20//13 21//13 16//13
f 14//5 23//5 4//5
f 24//14 3//14 4//14 23//14
f 2//15 5//15 6//15 1//15
f 8//16 6//16 5//16 7//16
f 10//17 13//17 14//17 9//17
f 3//18 10//18 9//18 4//18
f 12//19 8//19 7//19 11//19
f 18//20 12//20 11//20 17//20
f 13//21 16//21 15//21 14//21
f 20//22 18//22 17//22 19//22
f 1//23 20//23 19//23 2//23
f 16//24 21//24 22//24 15//24
f 21//25 24//25 23//25 22//25
f 1//26 24//26 21//26
